<svg width="40" height="40" viewBox="0 0 40 40" fill="none" xmlns="http://www.w3.org/2000/svg">
<path d="M20.9332 34.7012C20.3745 35.0996 19.6255 35.0996 19.0668 34.7012C11.019 28.9621 2.47595 17.1618 11.1112 8.63547C13.4686 6.30772 16.666 5 20 5C23.334 5 26.5314 6.30772 28.8888 8.63547C37.524 17.1618 28.981 28.9621 20.9332 34.7012Z" stroke="#1C1C1C" stroke-width="3" stroke-linecap="round" stroke-linejoin="round"/>
<path d="M19.9974 19.9997C21.8383 19.9997 23.3307 18.5073 23.3307 16.6663C23.3307 14.8254 21.8383 13.333 19.9974 13.333C18.1564 13.333 16.6641 14.8254 16.6641 16.6663C16.6641 18.5073 18.1564 19.9997 19.9974 19.9997Z" stroke="#1C1C1C" stroke-width="3" stroke-linecap="round" stroke-linejoin="round"/>
</svg>
