<svg width="41" height="40" viewBox="0 0 41 40" fill="none" xmlns="http://www.w3.org/2000/svg">
<path d="M3.83594 20.0003C3.83594 13.7149 3.83594 10.5722 6.27671 8.61961C8.71749 6.66699 12.6459 6.66699 20.5026 6.66699C28.3593 6.66699 32.2877 6.66699 34.7285 8.61961C37.1693 10.5722 37.1693 13.7149 37.1693 20.0003C37.1693 26.2857 37.1693 29.4284 34.7285 31.381C32.2877 33.3337 28.3593 33.3337 20.5026 33.3337C12.6459 33.3337 8.71749 33.3337 6.27671 31.381C3.83594 29.4284 3.83594 26.2857 3.83594 20.0003Z" stroke="#1C1C1C" stroke-width="3" stroke-linecap="round" stroke-linejoin="round"/>
<path d="M34.9433 8.85059L26.9008 16.3321C23.8398 18.883 22.3092 20.1584 20.499 20.1584C18.6887 20.1584 17.1582 18.883 14.0971 16.3321L6.05469 8.85059" stroke="#1C1C1C" stroke-width="3" stroke-linecap="round" stroke-linejoin="round"/>
</svg>
