<svg width="22" height="22" viewBox="0 0 22 22" fill="none" xmlns="http://www.w3.org/2000/svg">
    <path
        d="M10.9972 5.53105C7.97029 5.53105 5.52879 7.97309 5.52879 11.0007C5.52879 14.0282 7.97029 16.4702 10.9972 16.4702C14.0241 16.4702 16.4655 14.0282 16.4655 11.0007C16.4655 7.97309 14.0241 5.53105 10.9972 5.53105ZM10.9972 14.5566C9.04112 14.5566 7.44201 12.9619 7.44201 11.0007C7.44201 9.0394 9.03636 7.4447 10.9972 7.4447C12.958 7.4447 14.5523 9.0394 14.5523 11.0007C14.5523 12.9619 12.9532 14.5566 10.9972 14.5566ZM17.9647 5.30732C17.9647 6.01661 17.3936 6.58308 16.6892 6.58308C15.9801 6.58308 15.4138 6.01185 15.4138 5.30732C15.4138 4.60279 15.9849 4.03156 16.6892 4.03156C17.3936 4.03156 17.9647 4.60279 17.9647 5.30732ZM21.5865 6.60212C21.5056 4.89317 21.1153 3.37939 19.8637 2.13219C18.6167 0.88499 17.1033 0.494645 15.3947 0.408959C13.6338 0.308993 8.35579 0.308993 6.59487 0.408959C4.89106 0.489885 3.37761 0.88023 2.12593 2.12743C0.874249 3.37463 0.48875 4.88841 0.403083 6.59736C0.303139 8.35868 0.303139 13.6379 0.403083 15.3992C0.48399 17.1081 0.874249 18.6219 2.12593 19.8691C3.37761 21.1163 4.8863 21.5067 6.59487 21.5923C8.35579 21.6923 13.6338 21.6923 15.3947 21.5923C17.1033 21.5114 18.6167 21.1211 19.8637 19.8691C21.1106 18.6219 21.5008 17.1081 21.5865 15.3992C21.6864 13.6379 21.6864 8.36344 21.5865 6.60212ZM19.3116 17.289C18.9404 18.222 18.2217 18.9409 17.2841 19.3169C15.8802 19.8739 12.5487 19.7453 10.9972 19.7453C9.44566 19.7453 6.10942 19.8691 4.7102 19.3169C3.77739 18.9456 3.05874 18.2268 2.68276 17.289C2.12593 15.8847 2.25443 12.5525 2.25443 11.0007C2.25443 9.44879 2.13069 6.11181 2.68276 4.71228C3.05399 3.77926 3.77263 3.06045 4.7102 2.68439C6.11418 2.12743 9.44566 2.25596 10.9972 2.25596C12.5487 2.25596 15.8849 2.13219 17.2841 2.68439C18.217 3.05569 18.9356 3.7745 19.3116 4.71228C19.8684 6.11657 19.7399 9.44879 19.7399 11.0007C19.7399 12.5525 19.8684 15.8895 19.3116 17.289Z"
        fill="#1C1C1C" />
</svg>
    