<svg width="24" height="24" viewBox="0 0 24 24" fill="none" xmlns="http://www.w3.org/2000/svg">
<path d="M2 12C2 8.22876 2 6.34315 3.46447 5.17157C4.92893 4 7.28595 4 12 4C16.714 4 19.0711 4 20.5355 5.17157C22 6.34315 22 8.22876 22 12C22 15.7712 22 17.6569 20.5355 18.8284C19.0711 20 16.714 20 12 20C7.28595 20 4.92893 20 3.46447 18.8284C2 17.6569 2 15.7712 2 12Z" stroke="#1C1C1C" stroke-opacity="0.6" stroke-width="1.5" stroke-linecap="round" stroke-linejoin="round"/>
<path d="M20.6691 5.31055L15.8436 9.79946C14.007 11.33 13.0887 12.0953 12.0025 12.0953C10.9164 12.0953 9.99805 11.33 8.16141 9.79946L3.33594 5.31055" stroke="#1C1C1C" stroke-opacity="0.6" stroke-width="1.5" stroke-linecap="round" stroke-linejoin="round"/>
</svg>
