<svg width="22" height="22" viewBox="0 0 21 19" fill="none" xmlns="http://www.w3.org/2000/svg">
    <path fill-rule="evenodd" clip-rule="evenodd"
        d="M4.78734 11.019C4.83031 11.0333 4.87449 11.0437 4.91934 11.05C5.20226 11.7167 5.48359 12.384 5.76334 13.052C6.26634 14.254 6.77334 15.492 6.88434 15.848C7.02334 16.286 7.16934 16.584 7.32934 16.788C7.41234 16.892 7.50734 16.984 7.61934 17.054C7.67768 17.0905 7.74011 17.1201 7.80534 17.142C8.12534 17.262 8.41734 17.212 8.60034 17.151C8.70773 17.1144 8.80991 17.0639 8.90434 17.001L8.90934 16.999L11.7353 15.237L15.0003 17.739C15.0483 17.776 15.1003 17.807 15.1563 17.832C15.5483 18.002 15.9283 18.062 16.2863 18.014C16.6423 17.964 16.9253 17.815 17.1363 17.646C17.3786 17.4507 17.5718 17.2014 17.7003 16.918L17.7093 16.896L17.7123 16.888L17.7143 16.884V16.882L17.7153 16.881C17.7327 16.838 17.7461 16.7935 17.7553 16.748L20.7353 1.72301C20.7448 1.67492 20.7494 1.62602 20.7493 1.57701C20.7493 1.13701 20.5833 0.71801 20.1943 0.46501C19.8603 0.24801 19.4893 0.23801 19.2543 0.25601C19.0023 0.27601 18.7683 0.338009 18.6113 0.388009C18.5235 0.415864 18.4367 0.447223 18.3513 0.48201L18.3403 0.487009L1.62634 7.04301L1.62434 7.04401C1.56779 7.06481 1.51208 7.08783 1.45734 7.11301C1.3248 7.1726 1.19766 7.24353 1.07734 7.32501C0.850338 7.48001 0.327338 7.90601 0.416338 8.61001C0.486338 9.17001 0.870338 9.51501 1.10534 9.68101C1.23334 9.77201 1.35534 9.83701 1.44534 9.88001C1.48534 9.90001 1.57134 9.93401 1.60834 9.95001L1.61834 9.95301L4.78734 11.019ZM18.9253 1.86701H18.9233C18.9147 1.87083 18.9061 1.8745 18.8973 1.87801L2.16334 8.44301C2.15473 8.44649 2.14606 8.44982 2.13734 8.45301L2.12734 8.45601C2.09677 8.46802 2.06674 8.48137 2.03734 8.49601C2.06517 8.51195 2.09388 8.52631 2.12334 8.53901L5.26534 9.59701C5.32149 9.61593 5.37519 9.64144 5.42534 9.67301L15.8023 3.59801L15.8123 3.59301C15.8526 3.56851 15.894 3.54583 15.9363 3.52501C16.0083 3.48801 16.1233 3.43401 16.2533 3.39401C16.3433 3.36601 16.6103 3.28701 16.8983 3.38001C17.0511 3.42816 17.1872 3.5183 17.2912 3.64013C17.3952 3.76196 17.4628 3.91058 17.4863 4.06901C17.5236 4.20776 17.5246 4.35374 17.4893 4.49301C17.4193 4.76801 17.2273 4.98201 17.0523 5.14601C16.9023 5.28601 14.9563 7.16201 13.0373 9.01401L10.4243 11.534L9.95934 11.984L15.8313 16.486C15.9106 16.5193 15.9967 16.533 16.0823 16.526C16.1255 16.5202 16.1661 16.5021 16.1993 16.474C16.2399 16.4398 16.2747 16.3993 16.3023 16.354L16.3043 16.353L19.1943 1.78001C19.1033 1.80191 19.014 1.83066 18.9273 1.86601L18.9253 1.86701ZM10.4643 14.261L9.29234 13.363L9.00834 15.168L10.4643 14.261ZM8.21734 11.581L9.38234 10.456L11.9953 7.93401L12.9683 6.99601L6.44834 10.813L6.48334 10.895C6.89454 11.8664 7.30121 12.8398 7.70334 13.815L7.98634 12.015C8.01195 11.8481 8.09338 11.6957 8.21734 11.581Z"
        fill="#1C1C1C" />
</svg>
    