<svg width="22" height="22" viewBox="0 0 20 20" fill="none" xmlns="http://www.w3.org/2000/svg">
    <path
        d="M17.0469 2.91006C16.1301 1.98399 15.0381 1.24973 13.8345 0.750111C12.631 0.250494 11.34 -0.00448012 10.0369 5.95696e-05C4.57687 5.95696e-05 0.126875 4.45006 0.126875 9.91006C0.126875 11.6601 0.586875 13.3601 1.44688 14.8601L0.046875 20.0001L5.29688 18.6201C6.74687 19.4101 8.37687 19.8301 10.0369 19.8301C15.4969 19.8301 19.9469 15.3801 19.9469 9.92006C19.9469 7.27006 18.9169 4.78006 17.0469 2.91006ZM10.0369 18.1501C8.55688 18.1501 7.10687 17.7501 5.83687 17.0001L5.53687 16.8201L2.41688 17.6401L3.24688 14.6001L3.04688 14.2901C2.22462 12.977 1.78802 11.4593 1.78688 9.91006C1.78688 5.37006 5.48687 1.67006 10.0269 1.67006C12.2269 1.67006 14.2969 2.53006 15.8469 4.09006C16.6144 4.85402 17.2226 5.76272 17.6363 6.76348C18.05 7.76425 18.2609 8.83717 18.2569 9.92006C18.2769 14.4601 14.5769 18.1501 10.0369 18.1501ZM14.5569 11.9901C14.3069 11.8701 13.0869 11.2701 12.8669 11.1801C12.6369 11.1001 12.4769 11.0601 12.3069 11.3001C12.1369 11.5501 11.6669 12.1101 11.5269 12.2701C11.3869 12.4401 11.2369 12.4601 10.9869 12.3301C10.7369 12.2101 9.93687 11.9401 8.99687 11.1001C8.25688 10.4401 7.76687 9.63006 7.61687 9.38006C7.47687 9.13006 7.59687 9.00006 7.72687 8.87006C7.83687 8.76006 7.97688 8.58006 8.09688 8.44006C8.21688 8.30006 8.26688 8.19006 8.34688 8.03006C8.42688 7.86006 8.38688 7.72006 8.32687 7.60006C8.26687 7.48006 7.76687 6.26006 7.56687 5.76006C7.36687 5.28006 7.15688 5.34006 7.00688 5.33006H6.52687C6.35687 5.33006 6.09687 5.39006 5.86687 5.64006C5.64687 5.89006 5.00688 6.49006 5.00688 7.71006C5.00688 8.93006 5.89688 10.1101 6.01688 10.2701C6.13688 10.4401 7.76687 12.9401 10.2469 14.0101C10.8369 14.2701 11.2969 14.4201 11.6569 14.5301C12.2469 14.7201 12.7869 14.6901 13.2169 14.6301C13.6969 14.5601 14.6869 14.0301 14.8869 13.4501C15.0969 12.8701 15.0969 12.3801 15.0269 12.2701C14.9569 12.1601 14.8069 12.1101 14.5569 11.9901Z"
        fill="#1C1C1C" />
</svg>
    